# xmcd CD database file
#
# Track frame offsets:
#	150
#	10835
#	23560
#	35985
#	51470
#	65020
#	78195
#	91005
#	102772
#	117035
#	129585
#	141457
#	154987
#	166447
#	176240
#	186385
#	200237
#	212580
#	228332
#	245457
#
# Disc length: 3501 seconds
#
# Revision: 0
# Processed by: cddbd v1.5.2PL0 Copyright (c) Steve Scherf et al.
# Submitted via: CDex 1.70beta2
#
DISCID=1f0dab14
DTITLE=Stéphane Grappelli - Le meilleur de Stéphane Grappelli
DYEAR=1996
DGENRE=Jazz
TTITLE0=Swing guitars
TTITLE1=Are you in the mood
TTITLE2=Limehouse blues
TTITLE3=Body and soul
TTITLE4=In a sentimental mood
TTITLE5=You took advantage of me
TTITLE6=Alabamy bound
TTITLE7=I've found a new baby
TTITLE8=Embraceable you
TTITLE9=Echoes of France (La Marseillaise)
TTITLE10=Blues
TTITLE11=Tea for two
TTITLE12=Oui, pour vous revoir
TTITLE13=What is this thing called love
TTITLE14=Evelyne
TTITLE15=Night and day
TTITLE16=Minor blues
TTITLE17=Marno
TTITLE18=Manoir de mes rêves
TTITLE19=Can't help lovin' dat man
EXTD=YEAR: 1996
EXTT0=
EXTT1=
EXTT2=
EXTT3=
EXTT4=
EXTT5=
EXTT6=
EXTT7=
EXTT8=
EXTT9=
EXTT10=
EXTT11=
EXTT12=
EXTT13=
EXTT14=
EXTT15=
EXTT16=
EXTT17=
EXTT18=
EXTT19=
PLAYORDER=
